<svg width="36" height="50" viewBox="0 0 36 50" fill="none" xmlns="http://www.w3.org/2000/svg">
<path d="M0 44.2212V49.375C0 49.7205 0.279541 50 0.625 50H34.4336C34.7791 50 35.0586 49.7205 35.0586 49.375V44.2212C35.0586 42.7919 34.0425 41.5961 32.6947 41.3169V8.68309C34.0425 8.40389 35.0586 7.20814 35.0586 5.77881V0.625C35.0586 0.279541 34.7791 0 34.4336 0H0.625C0.279541 0 0 0.279541 0 0.625V5.77881C0 7.19982 1.00525 8.38787 2.34131 8.67603V41.3239C1.00525 41.6121 0 42.8002 0 44.2212ZM33.8086 44.2212V48.75H1.25V44.2212C1.25 43.2745 2.01965 42.5049 2.96631 42.5049H32.0923C33.0389 42.5049 33.8086 43.2745 33.8086 44.2212ZM31.4447 8.74512V15.9644H24.9835C23.1323 13.728 20.4327 12.4518 17.5293 12.4518C14.6259 12.4518 11.9263 13.728 10.0751 15.9644H3.59131V8.74512H31.4447ZM3.59131 17.2144H10.3748C10.5676 17.2144 10.7501 17.1252 10.8685 16.9727C12.4841 14.8938 14.9115 13.7018 17.5293 13.7018C20.1471 13.7018 22.5745 14.8938 24.1901 16.9727C24.3085 17.1252 24.491 17.2144 24.6838 17.2144H31.4447V32.5946H24.6838C24.491 32.5946 24.3085 32.6837 24.1901 32.8363C22.5751 34.9146 20.1471 36.1066 17.5293 36.1066C14.9115 36.1066 12.4835 34.9146 10.8685 32.8363C10.7501 32.6837 10.5676 32.5946 10.3748 32.5946H3.59131V17.2144ZM3.59131 33.8446H10.0751C11.9263 36.0803 14.6259 37.3566 17.5293 37.3566C20.4327 37.3566 23.1323 36.0803 24.9835 33.8446H31.4447V41.2549H3.59131V33.8446ZM1.25 5.77881V1.25H33.8086V5.77881C33.8086 6.72546 33.0389 7.49512 32.0923 7.49512H2.96631C2.01965 7.49512 1.25 6.72546 1.25 5.77881Z" fill="#E06D06"/>
</svg>
