<svg width="40" height="54" viewBox="0 0 40 54" fill="none" xmlns="http://www.w3.org/2000/svg">
<path d="M40 4.33378V1.8457C40 0.827928 39.1533 0 38.1124 0H1.88762C0.846736 0 0 0.827928 0 1.84571V4.33378C0 5.19541 0.609429 5.91511 1.42717 6.11744V47.8826C0.609429 48.0849 0 48.8046 0 49.6662V52.1543C0 53.1721 0.84673 54 1.88762 54H38.1124C39.1533 54 40 53.1721 40 52.1543V49.6662C40 48.7995 39.3837 48.0755 38.5587 47.8783V6.12172C39.3837 5.92446 40 5.20052 40 4.33378ZM2.80783 47.8205V40.2792H37.178V47.8205H2.80783ZM2.80783 26.3214V21.3676H37.178V26.3214H2.80783ZM37.178 27.6714V32.6254H2.80783V27.6714H37.178ZM2.80783 33.9754H37.178V38.9292H2.80783V33.9754ZM37.178 20.0176H2.80783V15.0636H37.178V20.0176ZM37.178 13.7136H2.80783V6.17948H37.178V13.7136ZM1.38066 1.84571C1.38066 1.57247 1.60785 1.35 1.88762 1.35H38.1124C38.3921 1.35 38.6193 1.57247 38.6193 1.84571V4.33378C38.6193 4.60702 38.3922 4.82949 38.1124 4.82949H1.88762C1.60785 4.82949 1.38066 4.60702 1.38066 4.33378V1.84571ZM38.6193 52.1543C38.6193 52.4275 38.3922 52.65 38.1124 52.65H1.88762C1.60785 52.65 1.38066 52.4275 1.38066 52.1543V49.6662C1.38066 49.393 1.60785 49.1705 1.88762 49.1705H38.1124C38.3921 49.1705 38.6193 49.393 38.6193 49.6662V52.1543Z" fill="#E06D06"/>
</svg>
