<svg width="52" height="52" viewBox="0 0 52 52" fill="none" xmlns="http://www.w3.org/2000/svg">
<path d="M4.31482 21.357V48.1C4.31482 50.2506 6.06423 52 8.21482 52H43.7852C45.9358 52 47.6852 50.2506 47.6852 48.1V21.357C50.5096 19.1109 52 16.4807 52 13.7354C52 6.16167 40.3365 0 26 0C11.6635 0 0 6.16167 0 13.7354C0 16.4807 1.49043 19.1109 4.31482 21.357ZM26 1.3C39.6195 1.3 50.7 6.87864 50.7 13.7354C50.7 16.1424 49.2962 18.4898 46.64 20.5239C46.4794 20.647 46.3852 20.8378 46.3852 21.0399V48.1C46.3852 49.5336 45.2188 50.7 43.7852 50.7H8.21482C6.7812 50.7 5.61482 49.5336 5.61482 48.1V21.0399C5.61482 20.8378 5.52056 20.647 5.35996 20.5239C2.70378 18.4898 1.3 16.1424 1.3 13.7354C1.3 6.87864 12.3805 1.3 26 1.3Z" fill="#E06D06"/>
<path d="M10.294 47.0076C10.653 47.0076 10.944 46.7165 10.944 46.3576V44.4136C10.944 44.0546 10.653 43.7636 10.294 43.7636C9.93503 43.7636 9.64399 44.0546 9.64399 44.4136V46.3576C9.64399 46.7165 9.93503 47.0076 10.294 47.0076Z" fill="#E06D06"/>
<path d="M16.5766 47.0076C16.9355 47.0076 17.2266 46.7165 17.2266 46.3576V44.4136C17.2266 44.0546 16.9355 43.7636 16.5766 43.7636C16.2176 43.7636 15.9266 44.0546 15.9266 44.4136V46.3576C15.9266 46.7165 16.2176 47.0076 16.5766 47.0076Z" fill="#E06D06"/>
<path d="M22.8589 47.0076C23.2178 47.0076 23.5089 46.7165 23.5089 46.3576V44.4136C23.5089 44.0546 23.2178 43.7636 22.8589 43.7636C22.4999 43.7636 22.2089 44.0546 22.2089 44.4136V46.3576C22.2089 46.7165 22.4999 47.0076 22.8589 47.0076Z" fill="#E06D06"/>
<path d="M29.1411 47.0076C29.5001 47.0076 29.7911 46.7165 29.7911 46.3576V44.4136C29.7911 44.0546 29.5001 43.7636 29.1411 43.7636C28.7822 43.7636 28.4911 44.0546 28.4911 44.4136V46.3576C28.4911 46.7165 28.7822 47.0076 29.1411 47.0076Z" fill="#E06D06"/>
<path d="M35.4234 47.0076C35.7824 47.0076 36.0734 46.7165 36.0734 46.3576V44.4136C36.0734 44.0546 35.7824 43.7636 35.4234 43.7636C35.0645 43.7636 34.7734 44.0546 34.7734 44.4136V46.3576C34.7734 46.7165 35.0645 47.0076 35.4234 47.0076Z" fill="#E06D06"/>
<path d="M41.706 47.0076C42.065 47.0076 42.356 46.7165 42.356 46.3576V44.4136C42.356 44.0546 42.065 43.7636 41.706 43.7636C41.347 43.7636 41.056 44.0546 41.056 44.4136V46.3576C41.056 46.7165 41.347 47.0076 41.706 47.0076Z" fill="#E06D06"/>
<path d="M13.4354 39.5662C13.7944 39.5662 14.0854 39.2752 14.0854 38.9162V36.9722C14.0854 36.6133 13.7944 36.3222 13.4354 36.3222C13.0765 36.3222 12.7854 36.6133 12.7854 36.9722V38.9162C12.7854 39.2752 13.0765 39.5662 13.4354 39.5662Z" fill="#E06D06"/>
<path d="M19.7177 39.5662C20.0767 39.5662 20.3677 39.2752 20.3677 38.9162V36.9722C20.3677 36.6133 20.0767 36.3222 19.7177 36.3222C19.3588 36.3222 19.0677 36.6133 19.0677 36.9722V38.9162C19.0677 39.2752 19.3588 39.5662 19.7177 39.5662Z" fill="#E06D06"/>
<path d="M26 39.5662C26.359 39.5662 26.65 39.2752 26.65 38.9162V36.9722C26.65 36.6133 26.359 36.3222 26 36.3222C25.641 36.3222 25.35 36.6133 25.35 36.9722V38.9162C25.35 39.2752 25.641 39.5662 26 39.5662Z" fill="#E06D06"/>
<path d="M32.2823 39.5662C32.6412 39.5662 32.9323 39.2752 32.9323 38.9162V36.9722C32.9323 36.6133 32.6412 36.3222 32.2823 36.3222C31.9233 36.3222 31.6323 36.6133 31.6323 36.9722V38.9162C31.6323 39.2752 31.9233 39.5662 32.2823 39.5662Z" fill="#E06D06"/>
<path d="M38.5645 39.5662C38.9235 39.5662 39.2146 39.2752 39.2146 38.9162V36.9722C39.2146 36.6133 38.9235 36.3222 38.5645 36.3222C38.2056 36.3222 37.9146 36.6133 37.9146 36.9722V38.9162C37.9146 39.2752 38.2056 39.5662 38.5645 39.5662Z" fill="#E06D06"/>
<path d="M10.294 32.3664C10.653 32.3664 10.944 32.0753 10.944 31.7164V29.7721C10.944 29.4131 10.653 29.1221 10.294 29.1221C9.93503 29.1221 9.64399 29.4131 9.64399 29.7721V31.7164C9.64399 32.0753 9.93503 32.3664 10.294 32.3664Z" fill="#E06D06"/>
<path d="M16.5766 32.3664C16.9355 32.3664 17.2266 32.0753 17.2266 31.7164V29.7721C17.2266 29.4131 16.9355 29.1221 16.5766 29.1221C16.2176 29.1221 15.9266 29.4131 15.9266 29.7721V31.7164C15.9266 32.0753 16.2176 32.3664 16.5766 32.3664Z" fill="#E06D06"/>
<path d="M22.8589 32.3664C23.2178 32.3664 23.5089 32.0753 23.5089 31.7164V29.7721C23.5089 29.4131 23.2178 29.1221 22.8589 29.1221C22.4999 29.1221 22.2089 29.4131 22.2089 29.7721V31.7164C22.2089 32.0753 22.4999 32.3664 22.8589 32.3664Z" fill="#E06D06"/>
<path d="M29.1411 32.3664C29.5001 32.3664 29.7911 32.0753 29.7911 31.7164V29.7721C29.7911 29.4131 29.5001 29.1221 29.1411 29.1221C28.7822 29.1221 28.4911 29.4131 28.4911 29.7721V31.7164C28.4911 32.0753 28.7822 32.3664 29.1411 32.3664Z" fill="#E06D06"/>
<path d="M35.4234 32.3664C35.7824 32.3664 36.0734 32.0753 36.0734 31.7164V29.7721C36.0734 29.4131 35.7824 29.1221 35.4234 29.1221C35.0645 29.1221 34.7734 29.4131 34.7734 29.7721V31.7164C34.7734 32.0753 35.0645 32.3664 35.4234 32.3664Z" fill="#E06D06"/>
<path d="M41.706 32.3664C42.065 32.3664 42.356 32.0753 42.356 31.7164V29.7721C42.356 29.4131 42.065 29.1221 41.706 29.1221C41.347 29.1221 41.056 29.4131 41.056 29.7721V31.7164C41.056 32.0753 41.347 32.3664 41.706 32.3664Z" fill="#E06D06"/>
<path d="M13.4354 24.925C13.7944 24.925 14.0854 24.634 14.0854 24.275V22.3307C14.0854 21.9718 13.7944 21.6807 13.4354 21.6807C13.0765 21.6807 12.7854 21.9718 12.7854 22.3307V24.275C12.7854 24.634 13.0765 24.925 13.4354 24.925Z" fill="#E06D06"/>
<path d="M19.7177 24.925C20.0767 24.925 20.3677 24.634 20.3677 24.275V22.3307C20.3677 21.9718 20.0767 21.6807 19.7177 21.6807C19.3588 21.6807 19.0677 21.9718 19.0677 22.3307V24.275C19.0677 24.634 19.3588 24.925 19.7177 24.925Z" fill="#E06D06"/>
<path d="M26 24.925C26.359 24.925 26.65 24.634 26.65 24.275V22.3307C26.65 21.9718 26.359 21.6807 26 21.6807C25.641 21.6807 25.35 21.9718 25.35 22.3307V24.275C25.35 24.634 25.641 24.925 26 24.925Z" fill="#E06D06"/>
<path d="M32.2823 24.925C32.6412 24.925 32.9323 24.634 32.9323 24.275V22.3307C32.9323 21.9718 32.6412 21.6807 32.2823 21.6807C31.9233 21.6807 31.6323 21.9718 31.6323 22.3307V24.275C31.6323 24.634 31.9233 24.925 32.2823 24.925Z" fill="#E06D06"/>
<path d="M38.5645 24.925C38.9235 24.925 39.2146 24.634 39.2146 24.275V22.3307C39.2146 21.9718 38.9235 21.6807 38.5645 21.6807C38.2056 21.6807 37.9146 21.9718 37.9146 22.3307V24.275C37.9146 24.634 38.2056 24.925 38.5645 24.925Z" fill="#E06D06"/>
<path d="M10.294 17.7249C10.653 17.7249 10.944 17.4338 10.944 17.0749V15.1309C10.944 14.7719 10.653 14.4809 10.294 14.4809C9.93503 14.4809 9.64399 14.7719 9.64399 15.1309V17.0749C9.64399 17.4338 9.93503 17.7249 10.294 17.7249Z" fill="#E06D06"/>
<path d="M16.5766 17.7249C16.9355 17.7249 17.2266 17.4338 17.2266 17.0749V15.1309C17.2266 14.7719 16.9355 14.4809 16.5766 14.4809C16.2176 14.4809 15.9266 14.7719 15.9266 15.1309V17.0749C15.9266 17.4338 16.2176 17.7249 16.5766 17.7249Z" fill="#E06D06"/>
<path d="M22.8589 17.7249C23.2178 17.7249 23.5089 17.4338 23.5089 17.0749V15.1309C23.5089 14.7719 23.2178 14.4809 22.8589 14.4809C22.4999 14.4809 22.2089 14.7719 22.2089 15.1309V17.0749C22.2089 17.4338 22.4999 17.7249 22.8589 17.7249Z" fill="#E06D06"/>
<path d="M29.1411 17.7249C29.5001 17.7249 29.7911 17.4338 29.7911 17.0749V15.1309C29.7911 14.7719 29.5001 14.4809 29.1411 14.4809C28.7822 14.4809 28.4911 14.7719 28.4911 15.1309V17.0749C28.4911 17.4338 28.7822 17.7249 29.1411 17.7249Z" fill="#E06D06"/>
<path d="M35.4234 17.7249C35.7824 17.7249 36.0734 17.4338 36.0734 17.0749V15.1309C36.0734 14.7719 35.7824 14.4809 35.4234 14.4809C35.0645 14.4809 34.7734 14.7719 34.7734 15.1309V17.0749C34.7734 17.4338 35.0645 17.7249 35.4234 17.7249Z" fill="#E06D06"/>
<path d="M41.706 17.7249C42.065 17.7249 42.356 17.4338 42.356 17.0749V15.1309C42.356 14.7719 42.065 14.4809 41.706 14.4809C41.347 14.4809 41.056 14.7719 41.056 15.1309V17.0749C41.056 17.4338 41.347 17.7249 41.706 17.7249Z" fill="#E06D06"/>
<path d="M13.4354 10.2835C13.7944 10.2835 14.0854 9.99248 14.0854 9.63352V7.68955C14.0854 7.33059 13.7944 7.03955 13.4354 7.03955C13.0765 7.03955 12.7854 7.33059 12.7854 7.68955V9.63352C12.7854 9.99248 13.0765 10.2835 13.4354 10.2835Z" fill="#E06D06"/>
<path d="M19.7177 10.2835C20.0767 10.2835 20.3677 9.99248 20.3677 9.63352V7.68955C20.3677 7.33059 20.0767 7.03955 19.7177 7.03955C19.3588 7.03955 19.0677 7.33059 19.0677 7.68955V9.63352C19.0677 9.99248 19.3588 10.2835 19.7177 10.2835Z" fill="#E06D06"/>
<path d="M26 10.2835C26.359 10.2835 26.65 9.99248 26.65 9.63352V7.68955C26.65 7.33059 26.359 7.03955 26 7.03955C25.641 7.03955 25.35 7.33059 25.35 7.68955V9.63352C25.35 9.99248 25.641 10.2835 26 10.2835Z" fill="#E06D06"/>
<path d="M32.2823 10.2835C32.6412 10.2835 32.9323 9.99248 32.9323 9.63352V7.68955C32.9323 7.33059 32.6412 7.03955 32.2823 7.03955C31.9233 7.03955 31.6323 7.33059 31.6323 7.68955V9.63352C31.6323 9.99248 31.9233 10.2835 32.2823 10.2835Z" fill="#E06D06"/>
<path d="M38.5645 10.2835C38.9235 10.2835 39.2146 9.99248 39.2146 9.63352V7.68955C39.2146 7.33059 38.9235 7.03955 38.5645 7.03955C38.2056 7.03955 37.9146 7.33059 37.9146 7.68955V9.63352C37.9146 9.99248 38.2056 10.2835 38.5645 10.2835Z" fill="#E06D06"/>
</svg>
