<svg width="46" height="46" viewBox="0 0 46 46" fill="none" xmlns="http://www.w3.org/2000/svg">
<path d="M23 0C10.3177 0 0 10.318 0 23C0 35.682 10.3177 46 23 46C35.6823 46 46 35.682 46 23C46 10.318 35.6823 0 23 0ZM23 44.85C10.952 44.85 1.15 35.048 1.15 23C1.15 10.952 10.952 1.15 23 1.15C35.048 1.15 44.85 10.952 44.85 23C44.85 35.048 35.048 44.85 23 44.85Z" fill="#E06D06"/>
<path d="M23 9.80701C21.3303 9.80701 19.972 11.1653 19.972 12.8353C19.972 15.0084 22.523 17.1618 22.6316 17.2522C22.7383 17.3415 22.8692 17.3859 23 17.3859C23.1297 17.3859 23.2591 17.3421 23.3656 17.2551C23.4742 17.1652 26.028 15.0376 26.028 12.8353C26.028 11.1653 24.6697 9.80701 23 9.80701ZM23.002 16.0365C22.2655 15.3234 21.122 13.9741 21.122 12.8353C21.122 11.7999 21.9646 10.957 23 10.957C24.0354 10.957 24.878 11.7999 24.878 12.8353C24.878 13.9904 23.7378 15.3307 23.002 16.0365Z" fill="#E06D06"/>
<path d="M13.6714 13.6714C12.4908 14.8517 12.4908 16.7733 13.6714 17.9536C14.779 19.0609 16.8159 19.2243 17.9202 19.2243C18.3481 19.2243 18.6358 19.1996 18.6751 19.1962C18.9506 19.1715 19.169 18.9542 19.1957 18.6791C19.2094 18.5387 19.511 15.2291 17.9533 13.6714C16.7727 12.4905 14.8515 12.4917 13.6714 13.6714ZM14.4845 17.1405C13.7523 16.4083 13.7523 15.2167 14.4845 14.4845C14.8506 14.1184 15.3316 13.9353 15.8122 13.9353C16.2932 13.9353 16.7741 14.1184 17.1402 14.4845C17.9575 15.3015 18.0987 17.0563 18.0774 18.0754C17.0641 18.09 15.2931 17.9491 14.4845 17.1405Z" fill="#E06D06"/>
<path d="M17.2522 23.3684C17.4291 23.1561 17.4302 22.8478 17.2545 22.6344C17.1652 22.5261 15.0382 19.9723 12.835 19.9723C11.1656 19.9723 9.80729 21.3306 9.80729 23C9.80729 24.6694 11.1656 26.0277 12.835 26.0277C15.0087 26.0277 17.1616 23.4767 17.2522 23.3684ZM10.9573 23C10.9573 21.9646 11.7996 21.1223 12.835 21.1223C13.9909 21.1223 15.3313 22.2627 16.0368 22.9983C15.3257 23.735 13.9786 24.8777 12.835 24.8777C11.7996 24.8777 10.9573 24.0354 10.9573 23Z" fill="#E06D06"/>
<path d="M18.6791 26.8043C18.5387 26.7897 15.2291 26.4882 13.6714 28.0464C12.4908 29.2267 12.4908 31.1483 13.6714 32.3286C14.2616 32.9188 15.037 33.2141 15.8125 33.2141C16.5877 33.2141 17.3631 32.9188 17.9533 32.3286C19.4902 30.7923 19.2089 27.4658 19.1962 27.3249C19.1713 27.0497 18.9542 26.8307 18.6791 26.8043ZM17.1402 31.5155C16.4083 32.2477 15.217 32.2477 14.4845 31.5155C13.7523 30.7833 13.7523 29.5917 14.4845 28.8595C15.2529 28.0908 16.8502 27.9206 17.8856 27.9206C17.9511 27.9206 18.0145 27.9212 18.0752 27.9223C18.0931 28.946 17.9488 30.7069 17.1402 31.5155Z" fill="#E06D06"/>
<path d="M23.3684 28.7478C23.1555 28.5697 22.8478 28.5703 22.6344 28.7449C22.5258 28.8348 19.972 30.9624 19.972 33.1647C19.972 34.8347 21.3303 36.193 23 36.193C24.6697 36.193 26.028 34.8347 26.028 33.1647C26.028 30.9916 23.477 28.8382 23.3684 28.7478ZM23 35.043C21.9646 35.043 21.122 34.2001 21.122 33.1647C21.122 32.0096 22.2622 30.6693 22.998 29.9635C23.7345 30.6766 24.878 32.0259 24.878 33.1647C24.878 34.2001 24.0354 35.043 23 35.043Z" fill="#E06D06"/>
<path d="M27.3249 26.8038C27.0494 26.8285 26.831 27.0458 26.8043 27.3209C26.7906 27.4613 26.489 30.7709 28.0467 32.3286C28.6369 32.9188 29.4123 33.2141 30.1875 33.2141C30.963 33.2141 31.7384 32.9188 32.3286 32.3286C33.5092 31.1483 33.5092 29.2267 32.3286 28.0464C30.792 26.5101 27.4652 26.7914 27.3249 26.8038ZM31.5155 31.5155C30.783 32.2477 29.5917 32.2477 28.8598 31.5155C28.0425 30.6985 27.9013 28.9437 27.9226 27.9246C28.9432 27.9178 30.7069 28.0515 31.5155 28.8595C32.2477 29.5917 32.2477 30.7833 31.5155 31.5155Z" fill="#E06D06"/>
<path d="M33.165 19.9723C30.9913 19.9723 28.8384 22.5233 28.7478 22.6316C28.5709 22.8439 28.5697 23.1522 28.7455 23.3656C28.8348 23.4739 30.9618 26.0277 33.165 26.0277C34.8344 26.0277 36.1927 24.6694 36.1927 23C36.1927 21.3306 34.8344 19.9723 33.165 19.9723ZM33.165 24.8777C32.0091 24.8777 30.6687 23.7373 29.9632 23.0017C30.6743 22.265 32.0214 21.1223 33.165 21.1223C34.2004 21.1223 35.0427 21.9646 35.0427 23C35.0427 24.0354 34.2004 24.8777 33.165 24.8777Z" fill="#E06D06"/>
<path d="M27.3209 19.1957C27.3616 19.1996 27.6693 19.2282 28.1239 19.2282C29.2349 19.2282 31.2232 19.0592 32.3286 17.9536C33.5092 16.7733 33.5092 14.8517 32.3286 13.6714C31.1483 12.4911 29.227 12.4905 28.0467 13.6714C26.5098 15.2077 26.7911 18.5342 26.8038 18.6751C26.8287 18.9503 27.0458 19.1693 27.3209 19.1957ZM28.8598 14.4845C29.5917 13.7528 30.783 13.7517 31.5155 14.4845C32.2477 15.2167 32.2477 16.4083 31.5155 17.1405C30.6988 17.9575 28.9477 18.0962 27.9248 18.0777C27.9069 17.054 28.0512 15.2931 28.8598 14.4845Z" fill="#E06D06"/>
<path d="M37.3121 12.9122C37.4233 11.7572 37.0167 10.6246 36.1961 9.80364C35.3754 8.98325 34.2397 8.57502 33.0878 8.68845C31.9319 8.79907 30.8318 8.16455 30.3506 7.10833C29.8697 6.0521 28.951 5.27439 27.8305 4.97398C26.7089 4.673 25.5246 4.8875 24.5804 5.56133L24.5801 5.56189C23.6354 6.23572 22.3655 6.23684 21.4196 5.56133C20.4748 4.8875 19.2914 4.673 18.1695 4.97398C17.049 5.27439 16.1303 6.0521 15.6494 7.10776C15.1679 8.16455 14.0664 8.79851 12.9125 8.68845C11.7569 8.57671 10.6246 8.98325 9.80392 9.80364C8.98325 10.6246 8.57671 11.7572 8.68789 12.9122C8.79935 14.0684 8.16455 15.1684 7.10776 15.6491C6.05154 16.1303 5.27383 17.0495 4.97369 18.1703C4.67356 19.2911 4.88778 20.4754 5.56161 21.4199C6.236 22.3649 6.236 23.6351 5.56161 24.5801C4.88778 25.5246 4.67356 26.7089 4.97369 27.8297C5.27383 28.9505 6.05182 29.8697 7.10804 30.3509C8.16455 30.8316 8.79935 31.9316 8.68789 33.0878C8.57671 34.2428 8.98325 35.3754 9.80392 36.1964C10.6246 37.0167 11.7605 37.4267 12.9122 37.3115C14.067 37.1981 15.1682 37.8354 15.6494 38.8917C16.1303 39.9479 17.049 40.7256 18.1695 41.026C19.2911 41.3276 20.4757 41.1125 21.4199 40.4381C22.3652 39.7648 23.6351 39.7637 24.5804 40.4387C25.245 40.9126 26.028 41.1591 26.8245 41.1591C27.16 41.1591 27.4981 41.1153 27.8305 41.026C28.951 40.7256 29.8697 39.9479 30.3506 38.8922C30.8318 37.8354 31.9316 37.1976 33.0875 37.3115C34.2453 37.4261 35.3757 37.0167 36.1961 36.1964C37.0167 35.3754 37.4233 34.2428 37.3121 33.0878C37.2006 31.9316 37.8354 30.8316 38.8922 30.3509C39.9485 29.8697 40.7262 28.9505 41.0263 27.8297C41.3264 26.7089 41.1122 25.5246 40.4384 24.5801C39.764 23.6351 39.764 22.3649 40.4384 21.4199C41.1122 20.4754 41.3264 19.2911 41.0263 18.1703C40.7262 17.0495 39.9482 16.1303 38.892 15.6491C37.8354 15.1684 37.2006 14.0684 37.3121 12.9122ZM39.9156 18.4679C40.1265 19.2558 39.976 20.0879 39.5023 20.7517C38.543 22.0965 38.543 23.9035 39.5023 25.2483C39.976 25.9121 40.1265 26.7442 39.9156 27.5321C39.7045 28.3199 39.1576 28.9662 38.4152 29.3042C36.912 29.9887 36.0088 31.5531 36.1672 33.1978C36.2455 34.0098 35.9597 34.806 35.383 35.3833C34.806 35.96 34.0098 36.2441 33.1978 36.1672C31.5554 36.0032 29.9893 36.9123 29.3039 38.4155C28.9659 39.1578 28.3204 39.7042 27.5326 39.9153C26.7445 40.1276 25.9118 39.976 25.2483 39.5026C24.5759 39.0225 23.7881 38.7822 23 38.7822C22.2122 38.7822 21.4241 39.0225 20.7519 39.502C20.0882 39.976 19.2558 40.1276 18.4674 39.9153C17.6796 39.7042 17.0341 39.1578 16.6961 38.4149C16.011 36.9123 14.4497 36.0066 12.8019 36.1672C11.9885 36.243 11.1937 35.9594 10.617 35.3833C10.0403 34.806 9.7545 34.0098 9.83284 33.1978C9.99119 31.5531 9.0877 29.9887 7.5845 29.3042C6.84216 28.9662 6.29552 28.3199 6.08439 27.5321C5.87354 26.7442 6.02402 25.9121 6.49767 25.2483C7.45703 23.9035 7.45703 22.0965 6.49767 20.7517C6.02402 20.0879 5.87354 19.2558 6.08439 18.4679C6.29552 17.6801 6.84244 17.0338 7.58478 16.6958C9.08798 16.0113 9.99119 14.4469 9.83284 12.8022C9.7545 11.9902 10.0403 11.194 10.617 10.6167C11.1937 10.04 11.9911 9.75591 12.8022 9.83284C14.4435 9.99512 16.011 9.0877 16.6961 7.5845C17.0341 6.84216 17.6796 6.2958 18.4674 6.08467C19.2558 5.87297 20.0882 6.02402 20.7517 6.49739C22.0968 7.45815 23.9041 7.45759 25.2481 6.49795C25.9121 6.02402 26.7445 5.87297 27.5326 6.08467C28.3204 6.2958 28.9659 6.84216 29.3039 7.58506C29.989 9.0877 31.5514 9.99792 33.1981 9.83284C34.0109 9.75535 34.8063 10.04 35.383 10.6167C35.9597 11.194 36.2455 11.9902 36.1672 12.8022C36.0088 14.4469 36.9123 16.0113 38.4155 16.6958C39.1578 17.0338 39.7045 17.6801 39.9156 18.4679Z" fill="#E06D06"/>
</svg>
