<svg width="51" height="50" viewBox="0 0 51 50" fill="none" xmlns="http://www.w3.org/2000/svg">
<path d="M31.1997 32.3438C30.854 32.3438 30.5742 32.6235 30.5742 32.9692V37.9495C30.5742 38.2952 30.854 38.5749 31.1997 38.5749C31.5454 38.5749 31.8251 38.2952 31.8251 37.9495V32.9692C31.8251 32.6235 31.5454 32.3438 31.1997 32.3438Z" fill="#E06D06"/>
<path d="M24.9655 32.3438C24.6198 32.3438 24.3401 32.6235 24.3401 32.9692V37.9495C24.3401 38.2952 24.6198 38.5749 24.9655 38.5749C25.3112 38.5749 25.591 38.2952 25.591 37.9495V32.9692C25.591 32.6235 25.3112 32.3438 24.9655 32.3438Z" fill="#E06D06"/>
<path d="M18.7314 32.3438C18.3857 32.3438 18.106 32.6235 18.106 32.9692V37.9495C18.106 38.2952 18.3857 38.5749 18.7314 38.5749C19.0771 38.5749 19.3568 38.2952 19.3568 37.9495V32.9692C19.3568 32.6235 19.0771 32.3438 18.7314 32.3438Z" fill="#E06D06"/>
<path d="M49.4094 41.8254H37.9527L39.7278 29.3623C42.246 29.0003 44.1975 26.8636 44.2514 24.2649C44.2581 24.2289 44.2611 24.1922 44.2611 24.1544V23.9504C44.2611 15.6966 38.8437 8.26686 31.0393 5.70076C30.8354 2.52388 28.1929 0 24.9655 0C21.7266 0 19.0771 2.54198 18.8899 5.73473C11.0284 8.36031 5.77367 15.614 5.77367 23.9626C5.77367 26.7046 7.73442 28.9968 10.3081 29.3661L12.1005 41.8254H0.625435C0.279736 41.8254 0 42.1051 0 42.4508V49.3746C0 49.7203 0.279736 50 0.625435 50H49.4094C49.7551 50 50.0348 49.7203 50.0348 49.3746V42.4508C50.0348 42.1051 49.7551 41.8254 49.4094 41.8254ZM24.9655 1.25087C27.6332 1.25087 29.8038 3.41882 29.808 6.08555C29.8031 6.13456 29.7949 6.18304 29.8014 6.23061C29.7277 8.83702 27.5894 10.936 24.9655 10.936C22.3582 10.936 20.2313 8.86328 20.1321 6.2797C20.1457 6.20213 20.1428 6.12273 20.1252 6.04195C20.1531 3.39538 22.3124 1.25087 24.9655 1.25087ZM7.02454 23.9504C7.02454 16.2752 11.7895 9.58461 18.9527 7.0379C19.4091 9.94963 21.9277 12.1868 24.9655 12.1868C28.015 12.1868 30.5413 9.9323 30.9835 7.00408C38.0992 9.50384 43.0103 16.3525 43.0103 23.9504V24.0505C43.0048 24.0841 43.0017 24.119 43.0017 24.1544C43.0017 26.3697 41.1944 28.1715 38.9737 28.1715C36.7529 28.1715 34.9456 26.3697 34.9456 24.1544C34.9456 23.8087 34.6658 23.5289 34.3201 23.5289C33.9744 23.5289 33.6947 23.8087 33.6947 24.1544C33.6947 26.3697 31.8874 28.1715 29.6666 28.1715C27.4459 28.1715 25.6386 26.3697 25.6386 24.1544C25.6386 23.8087 25.3588 23.5289 25.0131 23.5289C24.6674 23.5289 24.3877 23.8087 24.3877 24.1544C24.3877 26.3697 22.5804 28.1715 20.3596 28.1715C18.1388 28.1715 16.3316 26.3697 16.3316 24.1544C16.3316 23.8087 16.0518 23.5289 15.7061 23.5289C15.3604 23.5289 15.0807 23.8087 15.0807 24.1544C15.0807 25.2709 14.6324 26.3086 13.8176 27.0757C13.001 27.8447 11.9254 28.2301 10.8022 28.1641C8.68402 28.0371 7.02454 26.1913 7.02454 23.9504ZM11.5768 29.3965C12.7347 29.2844 13.813 28.7985 14.6757 27.9858C15.0923 27.5931 15.4392 27.1368 15.7055 26.639C16.5966 28.2942 18.3483 29.4223 20.3596 29.4223C22.3703 29.4223 24.122 28.2948 25.0131 26.6402C25.9043 28.2948 27.656 29.4223 29.6666 29.4223C31.6773 29.4223 33.429 28.2948 34.3201 26.6402C35.1341 28.1516 36.6691 29.2123 38.4606 29.3865L36.6893 41.8254H13.3644L11.5768 29.3965ZM48.7839 48.7491H1.25087V43.0762H12.8226H37.2317H48.7839V48.7491Z" fill="#E06D06"/>
</svg>
