<svg width="162" height="50" viewBox="0 0 162 50" fill="none" xmlns="http://www.w3.org/2000/svg">
<path d="M0 36.3206H9.9745V38.7789H0V36.3206ZM3.70475 37.4195H6.26976V49.8508H3.70475V37.4195Z" fill="#353535"/>
<path d="M13.1797 49.3819C12.4392 48.9796 11.8323 48.3715 11.4332 47.6317C11.0092 46.8234 10.7973 45.9216 10.8169 45.0099V41.1709C10.7973 40.2593 11.0092 39.3575 11.4332 38.5492C11.8323 37.8094 12.4392 37.2012 13.1797 36.799C13.9844 36.3729 14.8858 36.16 15.797 36.1809C16.7083 36.16 17.6097 36.3729 18.4144 36.799C19.1549 37.2012 19.7618 37.8094 20.1609 38.5492C20.5848 39.3575 20.7968 40.2593 20.7772 41.1709V45.0099C20.7968 45.9216 20.5848 46.8234 20.1609 47.6317C19.7618 48.3715 19.1549 48.9796 18.4144 49.3819C17.6097 49.808 16.7083 50.0208 15.797 50C14.8858 50.0208 13.9844 49.808 13.1797 49.3819ZM17.001 47.1556C17.3471 46.9628 17.6284 46.6729 17.81 46.322C18.0065 45.9355 18.1046 45.5069 18.0956 45.0739V41.107C18.1046 40.6739 18.0065 40.2453 17.81 39.8589C17.6284 39.508 17.3471 39.218 17.001 39.0252C16.625 38.8322 16.2082 38.7316 15.7851 38.7316C15.3621 38.7316 14.9452 38.8322 14.5693 39.0252C14.2232 39.218 13.9419 39.508 13.7603 39.8589C13.5638 40.2453 13.4657 40.6739 13.4747 41.107V45.0739C13.4657 45.5069 13.5638 45.9355 13.7603 46.322C13.9419 46.6729 14.2232 46.9628 14.5693 47.1556C14.9452 47.3486 15.3621 47.4493 15.7851 47.4493C16.2082 47.4493 16.625 47.3486 17.001 47.1556Z" fill="#353535"/>
<path d="M23.2803 36.3206H25.8429V49.8603H23.2803V36.3206ZM24.4486 42.1561H28.791C29.0748 42.1621 29.3547 42.09 29.6 41.9477C29.8355 41.8064 30.0254 41.601 30.1473 41.3556C30.2827 41.0835 30.3504 40.783 30.3448 40.4793C30.3507 40.1724 30.2847 39.8683 30.152 39.5912C30.0334 39.3439 29.8449 39.1365 29.6095 38.9944C29.3612 38.8513 29.0779 38.7791 28.791 38.786H24.4486V36.3206H28.7315C29.5103 36.3032 30.281 36.4807 30.9729 36.8369C31.6048 37.167 32.1265 37.6731 32.4743 38.2934C32.8261 38.9659 33.0098 39.7129 33.0098 40.4711C33.0098 41.2292 32.8261 41.9762 32.4743 42.6487C32.1262 43.2663 31.6043 43.7693 30.9729 44.0958C30.2798 44.4481 29.5097 44.6239 28.7315 44.6073H24.4486V42.1561Z" fill="#353535"/>
<path d="M38.4846 36.3206H48.4591V38.7789H38.4846V36.3206ZM42.1894 37.4195H44.7544V49.8508H42.1894V37.4195Z" fill="#353535"/>
<path d="M49.9678 36.3111H52.5328V49.8603H49.9678V36.3111ZM50.9885 41.9548H55.7236C55.9689 41.9592 56.2099 41.8908 56.416 41.7582C56.6155 41.621 56.7722 41.4306 56.8681 41.2088C56.9823 40.9439 57.0414 40.6587 57.0418 40.3704C57.0472 40.0825 56.9912 39.7968 56.8776 39.532C56.7806 39.3056 56.6204 39.1116 56.416 38.9731C56.203 38.8385 55.9543 38.7708 55.7022 38.7789H50.9671V36.3111H55.9163C56.6083 36.2957 57.2914 36.4694 57.8912 36.8132C58.4594 37.15 58.9173 37.6436 59.2094 38.2342C59.5194 38.9024 59.6799 39.6297 59.6799 40.3657C59.6799 41.1017 59.5194 41.8289 59.2094 42.4972C58.9164 43.0886 58.4567 43.5824 57.8865 43.9182C57.2876 44.2602 56.6066 44.4338 55.9163 44.4202H50.9766L50.9885 41.9548ZM53.8438 43.9939L56.5802 43.5771L60.2492 49.8721H57.1417L53.8438 43.9939Z" fill="#353535"/>
<path d="M65.8717 36.3206H67.4992L72.703 49.8603H69.9548L66.6973 40.612L63.4423 49.8603H60.675L65.8717 36.3206ZM63.1687 45.2349H70.326V47.6933H63.1687V45.2349Z" fill="#353535"/>
<path d="M74.3877 36.3206H76.9503V49.8603H74.3877V36.3206ZM75.6773 47.402H78.9443C79.7866 47.402 80.4385 47.2007 80.9002 46.798C81.1356 46.5808 81.3197 46.3144 81.4394 46.0179C81.5591 45.7215 81.6114 45.4023 81.5926 45.0834V41.0975C81.6114 40.7785 81.5591 40.4594 81.4394 40.1629C81.3197 39.8665 81.1356 39.6 80.9002 39.3828C80.4385 38.9802 79.7866 38.7789 78.9443 38.7789H75.6773V36.3206H78.8872C79.8857 36.2935 80.8779 36.4868 81.7924 36.8866C82.5608 37.2362 83.2005 37.8158 83.6222 38.5444C84.0598 39.3498 84.2765 40.2557 84.2504 41.1709V45.01C84.2705 45.8975 84.0625 46.7755 83.646 47.5606C83.2321 48.2978 82.5997 48.89 81.8353 49.2564C80.9103 49.6848 79.8974 49.8916 78.8777 49.8603H75.6773V47.402Z" fill="#353535"/>
<path d="M89.2472 49.8603H86.5894V36.3206H89.2472V49.8603Z" fill="#353535"/>
<path d="M92.0525 36.3206H95.1886L100.25 46.6938L100.026 46.9307V36.3206H102.477V49.8508H99.324L94.2796 39.6362L94.5033 39.3994V49.8579H92.0525V36.3206Z" fill="#353535"/>
<path d="M115.144 42.2887V44.9342C115.165 45.8605 114.955 46.7774 114.533 47.6033C114.141 48.3525 113.537 48.971 112.796 49.3819C111.999 49.8128 111.102 50.0292 110.195 50.0095C109.288 50.0269 108.389 49.8245 107.578 49.4198C106.841 49.0442 106.23 48.4632 105.82 47.7477C105.388 46.9809 105.171 46.1135 105.189 45.2349V41.2372C105.169 40.3153 105.38 39.4029 105.803 38.5823C106.196 37.836 106.799 37.2196 107.537 36.8084C108.336 36.3774 109.233 36.1611 110.141 36.1808C110.917 36.1734 111.685 36.3435 112.384 36.6782C113.064 37.0063 113.654 37.4939 114.102 38.0992C114.569 38.7244 114.887 39.4467 115.033 40.2117H112.263C112.172 39.9315 112.014 39.6778 111.801 39.4728C111.584 39.2645 111.325 39.1033 111.042 38.9991C110.754 38.8905 110.449 38.8351 110.141 38.8357C109.72 38.8275 109.304 38.9304 108.937 39.1341C108.591 39.3327 108.312 39.6274 108.132 39.982C107.936 40.3752 107.838 40.8099 107.847 41.249V45.2349C107.84 45.6269 107.94 46.0134 108.137 46.3528C108.332 46.6762 108.618 46.935 108.96 47.0964C109.346 47.2782 109.769 47.3682 110.195 47.3593C110.617 47.369 111.034 47.2712 111.406 47.0751C111.751 46.8876 112.031 46.6002 112.208 46.2509C112.403 45.8539 112.499 45.4161 112.489 44.9744V44.7494H110.428V42.2887H115.144Z" fill="#353535"/>
<path d="M123.016 36.3206H125.578V49.8603H123.016V36.3206ZM124.155 47.4019H132.129V49.8603H124.146L124.155 47.4019Z" fill="#353535"/>
<path d="M136.459 49.8603H133.804V36.3206H136.459V49.8603Z" fill="#353535"/>
<path d="M139.267 36.3206H142.403L147.464 46.6938L147.241 46.9307V36.3206H149.691V49.8508H146.539L141.494 39.6362L141.718 39.3994V49.8579H139.267V36.3206Z" fill="#353535"/>
<path d="M152.685 36.3206H155.25V49.8603H152.685V36.3206ZM153.61 36.3206H161.8V38.7789H153.61V36.3206ZM153.61 41.9074H160.77V44.3658H153.61V41.9074ZM153.61 47.4019H161.8V49.8603H153.61V47.4019Z" fill="#353535"/>
<path d="M41.9514 0H63.0544V5.21031H41.9514V0ZM49.8035 2.34464H55.2309V28.6567H49.794L49.8035 2.34464Z" fill="#E06D06"/>
<path d="M62.9141 0H84.0266V5.21031H62.9141V0ZM70.7661 2.34464H76.1936V28.6567H70.7566L70.7661 2.34464Z" fill="#E06D06"/>
<path d="M91.5835 0H97.0109V28.6567H91.5835V0ZM93.9986 23.4582H110.881V28.6685H93.9986V23.4582Z" fill="#E06D06"/>
<path d="M96.0046 0H80.4766V5.2032H96.0046V0Z" fill="#E06D06"/>
</svg>
