<svg width="162" height="50" viewBox="0 0 162 50" fill="none" xmlns="http://www.w3.org/2000/svg">
<path d="M0 36.3208H9.9745V38.7791H0V36.3208ZM3.70475 37.4197H6.26976V49.851H3.70475V37.4197Z" fill="white"/>
<path d="M13.1797 49.3821C12.4392 48.9798 11.8323 48.3717 11.4332 47.6319C11.0092 46.8236 10.7973 45.9218 10.8169 45.0102V41.1711C10.7973 40.2595 11.0092 39.3577 11.4332 38.5494C11.8323 37.8096 12.4392 37.2015 13.1797 36.7992C13.9844 36.3731 14.8858 36.1602 15.797 36.1811C16.7083 36.1602 17.6097 36.3731 18.4144 36.7992C19.1549 37.2015 19.7618 37.8096 20.1609 38.5494C20.5848 39.3577 20.7968 40.2595 20.7772 41.1711V45.0102C20.7968 45.9218 20.5848 46.8236 20.1609 47.6319C19.7618 48.3717 19.1549 48.9798 18.4144 49.3821C17.6097 49.8082 16.7083 50.0211 15.797 50.0002C14.8858 50.0211 13.9844 49.8082 13.1797 49.3821ZM17.001 47.1559C17.3471 46.9631 17.6284 46.6731 17.81 46.3222C18.0065 45.9358 18.1046 45.5072 18.0956 45.0741V41.1072C18.1046 40.6742 18.0065 40.2455 17.81 39.8591C17.6284 39.5082 17.3471 39.2183 17.001 39.0254C16.625 38.8325 16.2082 38.7318 15.7851 38.7318C15.3621 38.7318 14.9452 38.8325 14.5693 39.0254C14.2232 39.2183 13.9419 39.5082 13.7603 39.8591C13.5638 40.2455 13.4657 40.6742 13.4747 41.1072V45.0741C13.4657 45.5072 13.5638 45.9358 13.7603 46.3222C13.9419 46.6731 14.2232 46.9631 14.5693 47.1559C14.9452 47.3488 15.3621 47.4495 15.7851 47.4495C16.2082 47.4495 16.625 47.3488 17.001 47.1559Z" fill="white"/>
<path d="M23.2803 36.3205H25.8429V49.8602H23.2803V36.3205ZM24.4486 42.156H28.791C29.0748 42.162 29.3547 42.0899 29.6 41.9476C29.8355 41.8063 30.0254 41.6009 30.1473 41.3556C30.2827 41.0834 30.3504 40.7829 30.3448 40.4793C30.3507 40.1723 30.2847 39.8683 30.152 39.5912C30.0334 39.3439 29.8449 39.1364 29.6095 38.9943C29.3612 38.8512 29.0779 38.7791 28.791 38.7859H24.4486V36.3205H28.7315C29.5103 36.3031 30.281 36.4806 30.9729 36.8368C31.6048 37.167 32.1265 37.673 32.4743 38.2933C32.8261 38.9658 33.0098 39.7128 33.0098 40.471C33.0098 41.2292 32.8261 41.9762 32.4743 42.6487C32.1262 43.2663 31.6043 43.7692 30.9729 44.0957C30.2798 44.4481 29.5097 44.6238 28.7315 44.6073H24.4486V42.156Z" fill="white"/>
<path d="M38.4846 36.3208H48.4591V38.7791H38.4846V36.3208ZM42.1894 37.4197H44.7544V49.851H42.1894V37.4197Z" fill="white"/>
<path d="M49.9678 36.311H52.5328V49.8602H49.9678V36.311ZM50.9885 41.9547H55.7236C55.9689 41.9591 56.2099 41.8907 56.416 41.7581C56.6155 41.6209 56.7722 41.4304 56.8681 41.2087C56.9823 40.9438 57.0414 40.6586 57.0418 40.3703C57.0472 40.0824 56.9912 39.7967 56.8776 39.5319C56.7806 39.3055 56.6204 39.1115 56.416 38.973C56.203 38.8384 55.9543 38.7707 55.7022 38.7788H50.9671V36.311H55.9163C56.6083 36.2956 57.2914 36.4693 57.8912 36.8131C58.4594 37.1499 58.9173 37.6435 59.2094 38.2341C59.5194 38.9023 59.6799 39.6295 59.6799 40.3656C59.6799 41.1016 59.5194 41.8288 59.2094 42.4971C58.9164 43.0885 58.4567 43.5823 57.8865 43.9181C57.2876 44.2601 56.6066 44.4337 55.9163 44.4201H50.9766L50.9885 41.9547ZM53.8438 43.9938L56.5802 43.577L60.2492 49.872H57.1417L53.8438 43.9938Z" fill="white"/>
<path d="M65.8717 36.3208H67.4992L72.703 49.8605H69.9548L66.6973 40.6122L63.4423 49.8605H60.675L65.8717 36.3208ZM63.1687 45.2352H70.326V47.6935H63.1687V45.2352Z" fill="white"/>
<path d="M74.3877 36.3204H76.9503V49.8601H74.3877V36.3204ZM75.6773 47.4017H78.9443C79.7866 47.4017 80.4385 47.2004 80.9002 46.7978C81.1356 46.5806 81.3197 46.3142 81.4394 46.0177C81.5591 45.7213 81.6114 45.4021 81.5926 45.0832V41.0973C81.6114 40.7783 81.5591 40.4592 81.4394 40.1627C81.3197 39.8662 81.1356 39.5998 80.9002 39.3826C80.4385 38.98 79.7866 38.7787 78.9443 38.7787H75.6773V36.3204H78.8872C79.8857 36.2933 80.8779 36.4866 81.7924 36.8864C82.5608 37.236 83.2005 37.8155 83.6222 38.5442C84.0598 39.3496 84.2765 40.2555 84.2504 41.1707V45.0097C84.2705 45.8973 84.0625 46.7753 83.646 47.5604C83.2321 48.2976 82.5997 48.8898 81.8353 49.2561C80.9103 49.6846 79.8974 49.8914 78.8777 49.8601H75.6773V47.4017Z" fill="white"/>
<path d="M89.2472 49.8605H86.5894V36.3208H89.2472V49.8605Z" fill="white"/>
<path d="M92.0525 36.3208H95.1886L100.25 46.694L100.026 46.9309V36.3208H102.477V49.851H99.324L94.2796 39.6365L94.5033 39.3996V49.8581H92.0525V36.3208Z" fill="white"/>
<path d="M115.144 42.2888V44.9342C115.165 45.8605 114.955 46.7775 114.533 47.6033C114.141 48.3526 113.537 48.9711 112.796 49.3819C111.999 49.8129 111.102 50.0293 110.195 50.0096C109.288 50.027 108.389 49.8246 107.578 49.4198C106.841 49.0443 106.23 48.4633 105.82 47.7478C105.388 46.981 105.171 46.1136 105.189 45.235V41.2373C105.169 40.3154 105.38 39.403 105.803 38.5824C106.196 37.8361 106.799 37.2197 107.537 36.8085C108.336 36.3775 109.233 36.1611 110.141 36.1809C110.917 36.1735 111.685 36.3436 112.384 36.6783C113.064 37.0064 113.654 37.494 114.102 38.0993C114.569 38.7245 114.887 39.4468 115.033 40.2118H112.263C112.172 39.9316 112.014 39.6779 111.801 39.4729C111.584 39.2646 111.325 39.1034 111.042 38.9992C110.754 38.8906 110.449 38.8352 110.141 38.8358C109.72 38.8276 109.304 38.9305 108.937 39.1342C108.591 39.3328 108.312 39.6275 108.132 39.9821C107.936 40.3753 107.838 40.81 107.847 41.2491V45.235C107.84 45.627 107.94 46.0135 108.137 46.3529C108.332 46.6763 108.618 46.9351 108.96 47.0965C109.346 47.2783 109.769 47.3683 110.195 47.3594C110.617 47.3691 111.034 47.2713 111.406 47.0752C111.751 46.8877 112.031 46.6003 112.208 46.251C112.403 45.854 112.499 45.4162 112.489 44.9745V44.7495H110.428V42.2888H115.144Z" fill="white"/>
<path d="M123.016 36.3208H125.578V49.8605H123.016V36.3208ZM124.155 47.4022H132.129V49.8605H124.146L124.155 47.4022Z" fill="white"/>
<path d="M136.459 49.8605H133.804V36.3208H136.459V49.8605Z" fill="white"/>
<path d="M139.267 36.3208H142.403L147.464 46.694L147.241 46.9309V36.3208H149.691V49.851H146.539L141.494 39.6365L141.718 39.3996V49.8581H139.267V36.3208Z" fill="white"/>
<path d="M152.685 36.3208H155.25V49.8605H152.685V36.3208ZM153.61 36.3208H161.8V38.7791H153.61V36.3208ZM153.61 41.9077H160.77V44.366H153.61V41.9077ZM153.61 47.4022H161.8V49.8605H153.61V47.4022Z" fill="white"/>
<path d="M41.9514 0H63.0544V5.21031H41.9514V0ZM49.8035 2.34464H55.2309V28.6567H49.794L49.8035 2.34464Z" fill="white"/>
<path d="M62.9141 0H84.0266V5.21031H62.9141V0ZM70.7661 2.34464H76.1936V28.6567H70.7566L70.7661 2.34464Z" fill="white"/>
<path d="M91.5835 0H97.0109V28.6567H91.5835V0ZM93.9986 23.4582H110.881V28.6685H93.9986V23.4582Z" fill="white"/>
<path d="M96.0046 0H80.4766V5.2032H96.0046V0Z" fill="white"/>
</svg>
