<svg width="17" height="16" viewBox="0 0 17 16" fill="none" xmlns="http://www.w3.org/2000/svg">
<path d="M12.7758 9.03907V9.03901L12.7705 9.03912C12.5232 9.04438 12.298 9.08397 12.1011 9.16567C11.9188 9.24133 11.7481 9.3411 11.5894 9.46426C11.4358 9.58337 11.299 9.71166 11.1798 9.84945C11.0777 9.96749 10.9739 10.0758 10.8683 10.1745C10.7641 10.272 10.6649 10.3515 10.5707 10.4143C10.5035 10.4591 10.4344 10.4798 10.3577 10.4798C10.2369 10.4798 10.141 10.4405 10.0562 10.3575L6.01861 6.40811C5.93505 6.32638 5.89697 6.23647 5.89597 6.12544C5.89995 6.03598 5.92393 5.96701 5.96245 5.9105C6.01928 5.82712 6.09802 5.73457 6.20181 5.63304C6.30899 5.5282 6.42351 5.4253 6.54545 5.32437C6.68745 5.20684 6.81733 5.07158 6.93533 4.91944C7.05506 4.76505 7.15556 4.59756 7.2368 4.41744C7.32703 4.21739 7.36882 3.99498 7.36882 3.75558H7.36888L7.36875 3.7499C7.3632 3.50562 7.31585 3.27227 7.22565 3.05169C7.13423 2.82813 6.99986 2.63006 6.82466 2.45869L5.21256 0.88179L5.21259 0.881768L5.20971 0.87904C5.03167 0.710333 4.83016 0.578746 4.60612 0.485609C4.37982 0.391528 4.14198 0.344604 3.89463 0.344604C3.64316 0.344604 3.40281 0.39124 3.1758 0.485609C2.95101 0.579062 2.75083 0.711449 2.57669 0.88179L2.75151 1.06051L2.57669 0.881791L2.45945 0.996474C2.18924 1.26079 1.9526 1.49947 1.74979 1.71236C1.53777 1.93493 1.35556 2.17143 1.20397 2.42198C1.04829 2.67927 0.933872 2.9613 0.859817 3.26657C0.785455 3.57312 0.750244 3.93295 0.750183 4.34228C0.74518 4.94861 0.842632 5.57566 1.03947 6.22239C1.23491 6.86454 1.50006 7.50274 1.8342 8.13691C2.1687 8.77178 2.57234 9.39543 3.04446 10.0079C3.51544 10.619 4.0261 11.1961 4.57635 11.7392C5.12715 12.2828 5.71514 12.7851 6.34025 13.2462C6.96557 13.7073 7.60192 14.1062 8.24933 14.4423C8.89807 14.7792 9.55331 15.0435 10.215 15.2348C10.8796 15.4268 11.5303 15.524 12.1661 15.5241C12.5863 15.529 12.9584 15.492 13.2786 15.4085C13.5901 15.3273 13.8764 15.2146 14.1362 15.0695C14.3937 14.9255 14.6387 14.7467 14.8716 14.5341C15.0939 14.3311 15.3379 14.0997 15.6033 13.8401L15.7058 13.7398C15.8851 13.5644 16.0223 13.3642 16.1142 13.1396C16.2048 12.9179 16.25 12.685 16.25 12.4429H16.2501L16.2499 12.4372C16.2444 12.1929 16.197 11.9596 16.1068 11.739C16.0154 11.5154 15.881 11.3174 15.7058 11.146L14.0937 9.56908C13.9145 9.39371 13.7104 9.26014 13.4824 9.17094C13.2573 9.08284 13.0211 9.03907 12.7758 9.03907ZM10.3577 11.8973V11.8973L10.363 11.8972C10.6103 11.8919 10.8355 11.8523 11.0324 11.7706C11.2147 11.695 11.3854 11.5952 11.5441 11.4721C11.6966 11.3538 11.8345 11.2268 11.9573 11.091C12.0666 10.9701 12.173 10.8592 12.2765 10.758C12.3746 10.662 12.4701 10.5838 12.5628 10.522C12.6299 10.4773 12.6991 10.4565 12.7758 10.4565C12.9034 10.4565 13.0011 10.4971 13.0846 10.5788C13.1616 10.6541 13.2551 10.7405 13.3644 10.8378C13.471 10.9325 13.5948 11.0441 13.7359 11.1727C13.8755 11.2998 14.0101 11.4267 14.1398 11.5536C14.2673 11.6783 14.3874 11.8051 14.5003 11.9339C14.6106 12.0598 14.6935 12.1717 14.7521 12.2699C14.8091 12.3654 14.8194 12.4203 14.8194 12.4429C14.8194 12.5556 14.7817 12.6466 14.6975 12.7292C14.457 12.9598 14.2474 13.1672 14.0691 13.3513C13.9056 13.52 13.7351 13.6602 13.5576 13.773C13.3849 13.8828 13.1938 13.9659 12.9829 14.0218C12.7766 14.0765 12.5071 14.1066 12.1687 14.1067C11.6621 14.102 11.1334 14.0201 10.5818 13.8587C10.0277 13.6966 9.46669 13.4666 8.8986 13.1678C8.32876 12.868 7.76759 12.5162 7.21513 12.1121C6.66314 11.7083 6.13729 11.2621 5.63757 10.7733C5.13727 10.2839 4.6757 9.76887 4.25274 9.22821C3.83023 8.68812 3.4638 8.13973 3.15297 7.58311C2.84316 7.0283 2.60369 6.47569 2.43344 5.92521C2.26435 5.37848 2.181 4.85207 2.1808 4.3451C2.1856 4.01464 2.21853 3.75144 2.27433 3.54991C2.33045 3.34719 2.41605 3.16582 2.53056 3.00403C2.65289 2.83119 2.79917 2.66096 2.97029 2.49358L3.59314 1.88432C3.67498 1.80426 3.76708 1.76492 3.88183 1.76222C3.93531 1.76937 4.00371 1.79136 4.08876 1.83838C4.1828 1.89038 4.29396 1.96834 4.42281 2.07637C4.55437 2.18667 4.68643 2.30659 4.81897 2.43624C4.95363 2.56795 5.08335 2.69955 5.20817 2.83103C5.3348 2.96443 5.44911 3.08576 5.55113 3.19505C5.6548 3.30612 5.74078 3.39526 5.80821 3.46122C5.89043 3.54165 5.92987 3.63336 5.93085 3.75103C5.92688 3.84044 5.90305 3.90468 5.86765 3.95414C5.80888 4.03627 5.72763 4.13147 5.62125 4.24005C5.51514 4.34836 5.40187 4.4524 5.28137 4.55213C5.13937 4.66966 5.00949 4.80492 4.89149 4.95707C4.77176 5.11145 4.67126 5.27894 4.59003 5.45906C4.49979 5.65912 4.458 5.88153 4.458 6.12093H4.45794L4.45807 6.12661C4.46362 6.37088 4.51097 6.60423 4.60117 6.82481C4.6926 7.04838 4.82696 7.24644 5.00216 7.41781L9.03973 11.3672C9.21901 11.5426 9.42307 11.6762 9.65104 11.7654C9.87619 11.8535 10.1123 11.8973 10.3577 11.8973Z" fill="#353535" stroke="#353535" stroke-width="0.5"/>
</svg>
